<svg width="71" height="25" viewBox="0 0 71 25" fill="none" xmlns="http://www.w3.org/2000/svg">
<g clip-path="url(#clip0_0_2509)">
<path d="M10.5893 4.77014L20.7381 14.8295V20.2297H16.002V16.7708L8.63083 9.46448H7.09961V20.2297H2.36353V4.77014H10.5893ZM16.002 10.1351V4.77014H20.7381V10.1351H16.002Z" fill="#F4F4F4"/>
</g>
<path d="M28.498 8.3525V12.1436H33.2817V14.1006H28.498V17.9674H34.5675V20H25.9453V6.32932H34.5675V8.3525H28.498ZM39.3739 8.3525V12.3989H44.498V14.4315H39.3739V20H36.8213V6.32932H45.4435V8.3525H39.3739ZM57.0797 8.41868H52.9577V20H50.4146V8.41868H46.2926V6.32932H57.0797V8.41868ZM64.7396 14.7057V20H62.2059V14.7057L57.2236 6.32932H59.4642C59.6848 6.32932 59.8582 6.38289 59.9842 6.49004C60.1166 6.59718 60.2269 6.73269 60.3151 6.89657L62.811 11.4629C62.956 11.7339 63.082 11.9892 63.1892 12.2287C63.3026 12.4682 63.4035 12.7077 63.4917 12.9472C63.5736 12.7077 63.6682 12.4682 63.7753 12.2287C63.8825 11.9892 64.0054 11.7339 64.144 11.4629L66.6305 6.89657C66.6998 6.7579 66.8038 6.6287 66.9425 6.50895C67.0811 6.38919 67.2576 6.32932 67.4719 6.32932H69.722L64.7396 14.7057Z" fill="white"/>
<defs>
<clipPath id="clip0_0_2509">
<rect width="18.7113" height="15.7569" fill="white" transform="translate(2.36389 4.62146)"/>
</clipPath>
</defs>
</svg>
